<svg width="75" height="80" viewBox="0 0 75 80" fill="none" xmlns="http://www.w3.org/2000/svg">
<path d="M74.5592 36.8082L65.2153 42.3402L56.0837 47.6593L46.7398 42.3402L37.3959 36.8082L28.052 42.3402L18.9205 47.6593L9.57657 42.3402L0.232666 36.8082L9.57657 31.4891L18.9205 26.1699L28.052 20.8507L37.3959 15.3188L46.7398 20.8507L56.0837 26.1699L65.2153 31.4891L74.5592 36.8082Z" fill="white"/>
<path d="M74.5225 10.8224L65.188 16.1275L56.0656 21.4326L46.7311 16.1275L37.3966 10.8224L28.0621 16.1275L18.9398 21.4326L9.60526 16.1275L0.270752 10.8224L9.60526 5.30518L18.9398 0.00012207L28.0621 5.30518L37.3966 10.8224L46.7311 5.30518L56.0656 0.00012207L65.188 5.30518L74.5225 10.8224Z" fill="white"/>
<path d="M56.0643 26.3133L46.7298 31.6183L37.3953 36.9234L28.0608 31.6183L18.9384 26.3133L28.0608 21.0082L37.3953 15.491L46.7298 21.0082L56.0643 26.3133Z" fill="white"/>
<path d="M74.5223 58.5675L65.3999 63.8726L56.0654 69.1776L46.7309 74.4827L37.3964 79.9999L28.0619 74.4827L18.9395 69.1776L9.60502 63.8726L0.270508 58.5675L9.60502 53.0502L18.9395 47.7452L28.0619 53.0502L37.3964 58.5675L46.7309 53.0502L56.0654 47.7452L65.3999 53.0502L74.5223 58.5675Z" fill="white"/>
<path d="M74.5209 10.8223L65.1864 16.1274L56.064 21.4324L46.7295 16.1274L37.395 10.8223L28.0605 16.1274L18.9381 21.4324L9.60361 16.1274L0.269104 10.8223L9.60361 5.30506L18.9381 0L28.0605 5.30506L37.395 10.8223L46.7295 5.30506L56.064 0L65.1864 5.30506L74.5209 10.8223Z" fill="white"/>
<path d="M56.0628 26.3133L46.7283 31.6183L37.3938 36.9234L28.0593 31.6183L18.937 26.3133L28.0593 21.0082L37.3938 15.491L46.7283 21.0082L56.0628 26.3133Z" fill="white"/>
<path d="M74.5208 58.5675L65.3985 63.8726L56.0639 69.1776L46.7294 74.4827L37.3949 79.9999L28.0604 74.4827L18.9381 69.1776L9.60355 63.8726L0.269043 58.5675L9.60355 53.0502L18.9381 47.7452L28.0604 53.0502L37.3949 58.5675L46.7294 53.0502L56.0639 47.7452L65.3985 53.0502L74.5208 58.5675Z" fill="white"/>
</svg>
